<?xml version="1.0" encoding="UTF-8"?>
<svg xmlns="http://www.w3.org/2000/svg" width="800" height="280" viewBox="0 0 800 280" role="img" aria-label="Veritas Worldwide Press">
  <rect width="800" height="280" fill="#0A0A0A"/>
  <!-- Mark -->
  <g transform="translate(40,40)">
    <circle cx="100" cy="100" r="92" fill="none" stroke="#8B1A1A" stroke-width="6"/>
    <circle cx="100" cy="100" r="82" fill="none" stroke="#8B1A1A" stroke-width="2" opacity="0.8"/>
    <path d="M42 48 L62 48 C64 48 66 49 67 51 L97 145 L100 154 L103 145 L133 51 C134 49 136 48 138 48 L158 48 C161 48 163 50 162 53 L108 170 C106 175 100 178 100 178 C100 178 94 175 92 170 L38 53 C37 50 39 48 42 48 Z" fill="#FFFFFF"/>
    <rect x="38" y="44" width="36" height="5" rx="1" fill="#FFFFFF"/>
    <rect x="126" y="44" width="36" height="5" rx="1" fill="#FFFFFF"/>
  </g>
  <!-- Wordmark -->
  <text x="280" y="130" font-family="Georgia, 'Times New Roman', serif" font-size="64" font-weight="700" letter-spacing="8" fill="#FFFFFF">VERITAS</text>
  <text x="284" y="168" font-family="Inter, Helvetica, Arial, sans-serif" font-size="16" font-weight="500" letter-spacing="6" fill="rgba(255,255,255,0.55)">WORLDWIDE PRESS</text>
  <line x1="284" y1="184" x2="560" y2="184" stroke="#8B1A1A" stroke-width="1.5"/>
  <text x="284" y="210" font-family="Georgia, 'Times New Roman', serif" font-size="13" font-style="italic" letter-spacing="2" fill="rgba(255,255,255,0.55)">The Documentary Record</text>
</svg>
